<svg width="22" height="24" viewBox="0 0 22 24" fill="none" xmlns="http://www.w3.org/2000/svg">
<g clip-path="url(#clip0_5632_33349)">
<path d="M7.33321 17.3433H0V10.5278H7.33321V17.3433ZM0.17054 17.1848H7.16267V10.6863H0.17054V17.1848Z" fill="white"/>
<path fill-rule="evenodd" clip-rule="evenodd" d="M7.26142 10.666L9.03503 13.9649L10.8075 17.2638H7.26142H3.71533L5.48894 13.9649L7.26142 10.666Z" fill="white"/>
<path d="M10.8997 17.3168H3.62451L7.26269 10.5479L10.9009 17.3168H10.8997ZM3.80756 17.2112H10.7156L7.26155 10.7845L3.80756 17.2112Z" fill="white"/>
<path d="M21.6584 17.3433H14.3252V10.5278H21.6584V17.3433ZM14.4957 17.1848H21.4879V10.6863H14.4957V17.1848Z" fill="white"/>
<path fill-rule="evenodd" clip-rule="evenodd" d="M14.3972 10.666L12.6235 13.9649L10.8511 17.2638H14.3972H17.9433L16.1696 13.9649L14.3972 10.666Z" fill="white"/>
<path d="M18.0351 17.3168H10.7588L14.397 10.5479L18.0351 17.3168ZM10.943 17.2112H17.851L14.397 10.7845L10.943 17.2112Z" fill="white"/>
<path d="M7.33321 24.0001H0V17.1846H7.33321V24.0001ZM0.17054 23.8416H7.16267V17.3431H0.17054V23.8416Z" fill="white"/>
<path fill-rule="evenodd" clip-rule="evenodd" d="M3.66669 17.3228L5.44031 20.6217L7.21278 23.9206H3.66669H0.120605L1.89422 20.6217L3.66669 17.3228Z" fill="white"/>
<path d="M7.30468 23.9736H0.0283203L3.6665 17.2046L7.30468 23.9736ZM0.212503 23.8679H7.1205L3.6665 17.4413L0.212503 23.8679Z" fill="white"/>
<path d="M14.4958 24.0001H7.1626V17.1846H14.4958V24.0001ZM7.33314 23.8416H14.3253V17.3431H7.33314V23.8416Z" fill="white"/>
<path fill-rule="evenodd" clip-rule="evenodd" d="M10.8293 17.3228L12.6029 20.6217L14.3754 23.9206H10.8293H7.2832L9.05682 20.6217L10.8293 17.3228Z" fill="white"/>
<path d="M14.4673 23.9736H7.19092L10.8291 17.2046L14.4673 23.9736ZM7.3751 23.8679H14.2831L10.8291 17.4413L7.3751 23.8679Z" fill="white"/>
<path d="M21.6584 24.0001H14.3252V17.1846H21.6584V24.0001ZM14.4957 23.8416H21.4879V17.3431H14.4957V23.8416Z" fill="white"/>
<path fill-rule="evenodd" clip-rule="evenodd" d="M17.9919 17.3228L19.7655 20.6217L21.538 23.9206H17.9919H14.4458L16.2194 20.6217L17.9919 17.3228Z" fill="white"/>
<path d="M21.6299 23.9736H14.3535L17.9917 17.2046L21.6299 23.9736ZM14.5377 23.8679H21.4457L17.9917 17.4413L14.5377 23.8679Z" fill="white"/>
<path d="M7.33321 10.6861H0V3.87061H7.33321V10.6861ZM0.17054 10.5276H7.16267V4.02911H0.17054V10.5276Z" fill="white"/>
<path d="M14.4958 10.6861H7.1626V3.87061H14.4958V10.6861ZM7.33314 10.5276H14.3253V4.02911H7.33314V10.5276Z" fill="white"/>
<path fill-rule="evenodd" clip-rule="evenodd" d="M10.8293 4.00928L12.6029 7.30818L14.3754 10.6071H10.8293H7.2832L9.05682 7.30818L10.8293 4.00928Z" fill="white"/>
<path d="M14.5128 10.6861H7.14551L10.8292 3.83154L14.5128 10.6861ZM7.42064 10.5276H14.2365L10.828 4.18658L7.41951 10.5276H7.42064Z" fill="white"/>
<path d="M21.6584 10.6861H14.3252V3.87061H21.6584V10.6861ZM14.4957 10.5276H21.4879V4.02911H14.4957V10.5276Z" fill="white"/>
<path d="M2.37977 2.09431H3.83276L3.14947 0.710078L2.37977 2.09431ZM0.854004 3.52503V3.27883C1.01431 3.25664 1.14392 3.21226 1.24283 3.14674C1.34175 3.08017 1.43952 2.965 1.53844 2.80016L3.16425 0H4.02377L5.60638 2.85722C5.6871 3.00409 5.77805 3.10553 5.87697 3.16471C5.97588 3.22282 6.11686 3.26192 6.29763 3.27988V3.52609H3.70202V3.27988C3.93395 3.27037 4.09426 3.2503 4.18408 3.2186C4.27276 3.1869 4.31823 3.13512 4.31823 3.06538C4.31823 3.03685 4.30118 2.98613 4.26821 2.91428C4.26366 2.90582 4.26139 2.89949 4.26139 2.89843L3.99648 2.34157H2.25016L2.03187 2.78008L2.02504 2.79699C1.96479 2.91111 1.93636 2.99353 1.93636 3.04213C1.93636 3.11293 1.97616 3.16576 2.05688 3.19958C2.13874 3.23445 2.28654 3.26192 2.50142 3.27988V3.52609H0.854004V3.52503Z" fill="white"/>
<path d="M7.515 0.240919H7.44679V2.87307C7.44679 3.03685 7.48885 3.14252 7.57299 3.19007C7.65598 3.23656 7.85153 3.26615 8.15964 3.27988V3.52609H6.29053V3.27988C6.59864 3.2672 6.79419 3.23762 6.87605 3.19007C6.95791 3.14252 6.99997 3.03685 6.99997 2.87307V0.651961C6.99997 0.488179 6.95791 0.382512 6.87605 0.334962C6.79419 0.288469 6.59864 0.258883 6.29053 0.245146V0H8.62124L9.79569 2.3701L10.894 0H13.2463V0.246203C12.9359 0.258883 12.7392 0.288469 12.6562 0.337076C12.5721 0.384626 12.53 0.490292 12.53 0.651961V2.87307C12.53 3.03474 12.5732 3.1404 12.6573 3.18795C12.7415 3.23656 12.9382 3.26615 13.2463 3.27883V3.52503H10.5426V3.27883C10.8508 3.26615 11.0463 3.23656 11.1282 3.18901C11.21 3.14146 11.2521 3.03579 11.2521 2.87201V0.240919H11.1941L9.67631 3.52503H9.13968L7.51386 0.240919H7.515Z" fill="white"/>
<path d="M15.5918 2.87307C15.5918 3.03051 15.635 3.13301 15.7202 3.18267C15.8066 3.23128 15.9988 3.26298 16.2966 3.27988V3.52609H13.6362V3.27988C13.9011 3.26403 14.0728 3.23128 14.1513 3.18267C14.2286 3.13301 14.2672 3.03157 14.2672 2.87307V0.651961C14.2672 0.494519 14.2286 0.392022 14.1513 0.342359C14.0728 0.293752 13.9023 0.262053 13.6362 0.245146V0H18.5103L18.6137 1.18558H18.209C18.1237 0.863294 17.9338 0.625545 17.6416 0.474442C17.3483 0.322282 16.9379 0.246203 16.4069 0.246203C16.0704 0.246203 15.8498 0.270506 15.7452 0.318056C15.6418 0.366662 15.5895 0.477612 15.5895 0.653018V1.57443H15.8896C16.2 1.57443 16.4331 1.51843 16.59 1.40642C16.7469 1.29441 16.8412 1.11689 16.8742 0.872804H17.2392V2.52965H16.8742C16.8412 2.28556 16.7457 2.10804 16.59 1.99604C16.4331 1.88403 16.2 1.82803 15.8896 1.82803H15.5895V2.87307H15.5918Z" fill="white"/>
<path d="M19.5314 0.651962C19.5314 0.494519 19.4927 0.392022 19.4154 0.342359C19.337 0.293753 19.1664 0.262053 18.9004 0.245146V0H21.4789V0.246203C21.2186 0.260996 21.0503 0.291639 20.9719 0.339189C20.8946 0.386739 20.8559 0.491349 20.8559 0.651962V2.87307C20.8559 3.03368 20.8946 3.13829 20.9719 3.18584C21.0503 3.23445 21.2186 3.26509 21.4789 3.27883V3.52503H18.9004V3.27883C19.1653 3.26298 19.337 3.23022 19.4154 3.18161C19.4927 3.13195 19.5314 3.02945 19.5314 2.87201V0.651962Z" fill="white"/>
</g>
<defs>
<clipPath id="clip0_5632_33349">
<rect width="21.6585" height="24" fill="white"/>
</clipPath>
</defs>
</svg>
