<svg width="142" height="41" viewBox="0 0 142 41" fill="none" xmlns="http://www.w3.org/2000/svg">
<path d="M140.945 36.223C140.945 38.405 139.141 40.1725 136.909 40.1725H4.82864C2.59798 40.1725 0.787354 38.405 0.787354 36.223V4.72733C0.787354 2.54636 2.59798 0.772705 4.82864 0.772705H136.908C139.141 0.772705 140.944 2.54636 140.944 4.72733L140.945 36.223Z" fill="black"/>
<path d="M136.483 0.820122C138.913 0.820122 140.891 2.74837 140.891 5.11806V35.8267C140.891 38.1964 138.913 40.1246 136.483 40.1246H5.24934C2.8189 40.1246 0.841207 38.1964 0.841207 35.8267V5.11806C0.841207 2.74837 2.8189 0.820122 5.24934 0.820122H136.483ZM136.483 -5.43912e-05H5.24934C2.36352 -5.43912e-05 0 2.30438 0 5.11806V35.8267C0 38.6404 2.36352 40.9448 5.24934 40.9448H136.483C139.369 40.9448 141.732 38.6404 141.732 35.8267V5.11806C141.732 2.30438 139.369 -5.43912e-05 136.483 -5.43912e-05Z" fill="#A6A6A6"/>
<path d="M31.6304 20.2512C31.6 16.9521 34.401 15.3471 34.5291 15.2724C32.9428 13.0173 30.484 12.7092 29.6199 12.6846C27.5548 12.4727 25.5517 13.8894 24.4997 13.8894C23.4268 13.8894 21.8068 12.7051 20.0609 12.7399C17.8142 12.7737 15.7123 14.042 14.5596 16.0114C12.1806 20.0271 13.9548 25.9283 16.2341 29.1742C17.3743 30.7638 18.7066 32.5388 20.4504 32.4764C22.1564 32.4078 22.7937 31.4159 24.8525 31.4159C26.8924 31.4159 27.4908 32.4764 29.2693 32.4364C31.1003 32.4078 32.253 30.8396 33.3533 29.2356C34.6709 27.4135 35.2 25.6191 35.221 25.527C35.1779 25.5127 31.6651 24.2055 31.6304 20.2512Z" fill="white"/>
<path d="M28.2709 10.5494C29.1884 9.43054 29.8163 7.90841 29.642 6.36377C28.3139 6.42109 26.653 7.25944 25.6966 8.35369C24.8504 9.31794 24.0945 10.8984 24.2898 12.3847C25.7816 12.4932 27.3134 11.6508 28.2709 10.5494Z" fill="white"/>
<path d="M56.3202 32.2481H53.9359L52.6299 28.2468H48.0903L46.8462 32.2481H44.5249L49.0225 18.6257H51.8005L56.3202 32.2481ZM52.2362 26.568L51.0551 23.0109C50.9302 22.6475 50.696 21.7918 50.3506 20.4447H50.3086C50.1711 21.0241 49.9496 21.8798 49.6451 23.0109L48.485 26.568H52.2362Z" fill="white"/>
<path d="M67.8865 27.2161C67.8865 28.8866 67.4235 30.2071 66.4976 31.1765C65.6682 32.0394 64.6382 32.4703 63.4088 32.4703C62.0818 32.4703 61.1285 32.0056 60.5479 31.0762H60.506V36.2506H58.2676V25.6592C58.2676 24.6089 58.2393 23.531 58.1847 22.4255H60.1532L60.2781 23.9825H60.3201C61.0666 22.8094 62.1994 22.2239 63.7196 22.2239C64.9081 22.2239 65.9002 22.6814 66.6939 23.5976C67.4897 24.5147 67.8865 25.7206 67.8865 27.2161ZM65.6062 27.2959C65.6062 26.3399 65.3857 25.5517 64.9427 24.9314C64.4587 24.2844 63.8088 23.961 62.9941 23.961C62.4419 23.961 61.9401 24.1411 61.4918 24.4963C61.0424 24.8546 60.7485 25.3224 60.6109 25.9018C60.5416 26.172 60.507 26.3931 60.507 26.5671V28.2049C60.507 28.9194 60.7317 29.5223 61.181 30.0147C61.6304 30.507 62.2141 30.7527 62.9322 30.7527C63.7752 30.7527 64.4314 30.4354 64.9007 29.8028C65.371 29.1692 65.6062 28.3339 65.6062 27.2959Z" fill="white"/>
<path d="M79.4741 27.2161C79.4741 28.8866 79.0111 30.2071 78.0841 31.1765C77.2557 32.0394 76.2258 32.4703 74.9964 32.4703C73.6694 32.4703 72.7161 32.0056 72.1366 31.0762H72.0946V36.2506H69.8563V25.6592C69.8563 24.6089 69.8279 23.531 69.7733 22.4255H71.7418L71.8668 23.9825H71.9087C72.6542 22.8094 73.787 22.2239 75.3082 22.2239C76.4956 22.2239 77.4878 22.6814 78.2836 23.5976C79.0762 24.5147 79.4741 25.7206 79.4741 27.2161ZM77.1938 27.2959C77.1938 26.3399 76.9723 25.5517 76.5292 24.9314C76.0452 24.2844 75.3975 23.961 74.5817 23.961C74.0284 23.961 73.5276 24.1411 73.0783 24.4963C72.629 24.8546 72.336 25.3224 72.1985 25.9018C72.1303 26.172 72.0946 26.3931 72.0946 26.5671V28.2049C72.0946 28.9194 72.3192 29.5223 72.7665 30.0147C73.2158 30.506 73.7996 30.7527 74.5198 30.7527C75.3628 30.7527 76.019 30.4354 76.4883 29.8028C76.9586 29.1692 77.1938 28.3339 77.1938 27.2959Z" fill="white"/>
<path d="M92.4293 28.4281C92.4293 29.5868 92.0167 30.5296 91.1884 31.2574C90.2781 32.0527 89.0109 32.4499 87.3826 32.4499C85.8792 32.4499 84.6739 32.1674 83.7616 31.6013L84.2802 29.7823C85.2629 30.3617 86.3411 30.6524 87.5159 30.6524C88.359 30.6524 89.0151 30.4661 89.4865 30.0956C89.9558 29.725 90.1899 29.2275 90.1899 28.6072C90.1899 28.0545 89.9968 27.5887 89.6094 27.211C89.2241 26.8333 88.5805 26.4822 87.6818 26.1577C85.2356 25.2682 84.0136 23.9651 84.0136 22.2515C84.0136 21.1317 84.4419 20.2135 85.2997 19.499C86.1543 18.7835 87.2944 18.4263 88.7201 18.4263C89.9915 18.4263 91.0477 18.6423 91.8907 19.0732L91.3311 20.8523C90.5437 20.4346 89.6535 20.2258 88.6571 20.2258C87.8697 20.2258 87.2545 20.4152 86.8136 20.7919C86.4409 21.1286 86.254 21.5391 86.254 22.0253C86.254 22.5638 86.4671 23.009 86.8955 23.3591C87.2682 23.6826 87.9453 24.0326 88.928 24.4104C90.1301 24.8823 91.013 25.434 91.581 26.0666C92.1469 26.6971 92.4293 27.4863 92.4293 28.4281Z" fill="white"/>
<path d="M99.8299 24.0633H97.3627V28.8324C97.3627 30.0454 97.7973 30.6513 98.6687 30.6513C99.0687 30.6513 99.4005 30.6176 99.663 30.55L99.7249 32.2072C99.284 32.368 98.7034 32.4488 97.9842 32.4488C97.1002 32.4488 96.4094 32.1857 95.9107 31.6606C95.4141 31.1345 95.1643 30.2521 95.1643 29.0125V24.0613H93.6945V22.4235H95.1643V20.625L97.3627 19.978V22.4235H99.8299V24.0633Z" fill="white"/>
<path d="M110.962 27.256C110.962 28.7658 110.519 30.0054 109.635 30.9748C108.708 31.9728 107.477 32.4703 105.943 32.4703C104.465 32.4703 103.288 31.9923 102.41 31.0362C101.533 30.0801 101.094 28.8733 101.094 27.4187C101.094 25.8966 101.545 24.6498 102.451 23.6804C103.355 22.7101 104.575 22.2249 106.109 22.2249C107.587 22.2249 108.777 22.7029 109.674 23.66C110.533 24.5884 110.962 25.7871 110.962 27.256ZM108.639 27.3266C108.639 26.4207 108.441 25.6438 108.039 24.9958C107.569 24.2117 106.899 23.8207 106.029 23.8207C105.13 23.8207 104.446 24.2127 103.977 24.9958C103.575 25.6448 103.376 26.434 103.376 27.3675C103.376 28.2734 103.575 29.0504 103.977 29.6973C104.461 30.4814 105.137 30.8724 106.009 30.8724C106.864 30.8724 107.535 30.4732 108.019 29.6768C108.431 29.0166 108.639 28.2315 108.639 27.3266Z" fill="white"/>
<path d="M118.237 24.3448C118.016 24.3049 117.779 24.2844 117.532 24.2844C116.744 24.2844 116.135 24.5741 115.707 25.1545C115.334 25.6663 115.147 26.3132 115.147 27.0943V32.2482H112.91L112.931 25.5189C112.931 24.3868 112.903 23.356 112.847 22.4266H114.797L114.879 24.3059H114.941C115.177 23.66 115.55 23.14 116.06 22.75C116.558 22.3989 117.097 22.2239 117.678 22.2239C117.884 22.2239 118.071 22.2382 118.237 22.2638V24.3448Z" fill="white"/>
<path d="M128.248 26.8723C128.248 27.2633 128.221 27.5929 128.166 27.8621H121.451C121.477 28.8325 121.802 29.5746 122.425 30.0864C122.991 30.544 123.723 30.7733 124.621 30.7733C125.616 30.7733 126.523 30.6187 127.339 30.3086L127.689 31.8235C126.736 32.2289 125.61 32.4305 124.312 32.4305C122.75 32.4305 121.523 31.9822 120.631 31.0865C119.741 30.1908 119.294 28.9881 119.294 27.4793C119.294 25.9981 119.709 24.7646 120.54 23.7809C121.409 22.7307 122.584 22.2056 124.062 22.2056C125.514 22.2056 126.613 22.7307 127.36 23.7809C127.951 24.6152 128.248 25.647 128.248 26.8723ZM126.113 26.3062C126.128 25.6593 125.982 25.1004 125.679 24.6285C125.291 24.0215 124.696 23.7185 123.895 23.7185C123.163 23.7185 122.568 24.0143 122.113 24.608C121.741 25.0799 121.519 25.646 121.451 26.3052H126.113V26.3062Z" fill="white"/>
<path d="M51.496 10.2453C51.496 11.4501 51.1254 12.357 50.3852 12.9661C49.6997 13.528 48.7254 13.8095 47.4635 13.8095C46.8377 13.8095 46.3023 13.7829 45.854 13.7297V7.14678C46.4388 7.05465 47.0687 7.00757 47.749 7.00757C48.9511 7.00757 49.8572 7.26245 50.4682 7.77221C51.1527 8.34851 51.496 9.17253 51.496 10.2453ZM50.3359 10.275C50.3359 9.49395 50.1238 8.89513 49.6997 8.47749C49.2755 8.06087 48.6561 7.85206 47.8404 7.85206C47.4939 7.85206 47.1989 7.87458 46.9543 7.92166V12.9262C47.0897 12.9466 47.3375 12.9558 47.6976 12.9558C48.5396 12.9558 49.1894 12.7276 49.6472 12.271C50.1049 11.8145 50.3359 11.1491 50.3359 10.275Z" fill="white"/>
<path d="M57.6472 11.2977C57.6472 12.0398 57.4299 12.6478 56.9952 13.1248C56.5396 13.6152 55.9359 13.8598 55.1821 13.8598C54.4556 13.8598 53.8771 13.6254 53.4456 13.1545C53.0152 12.6847 52.7999 12.092 52.7999 11.3775C52.7999 10.6303 53.0214 10.0171 53.4666 9.54115C53.9117 9.06516 54.5102 8.82666 55.264 8.82666C55.9905 8.82666 56.5742 9.06107 57.0162 9.53091C57.4362 9.98745 57.6472 10.5771 57.6472 11.2977ZM56.506 11.3325C56.506 10.8872 56.4073 10.5054 56.211 10.1871C55.98 9.80217 55.6514 9.60973 55.2241 9.60973C54.7821 9.60973 54.4461 9.80217 54.2152 10.1871C54.0178 10.5054 53.9201 10.8934 53.9201 11.3519C53.9201 11.7972 54.0188 12.179 54.2152 12.4974C54.4535 12.8822 54.7852 13.0747 55.2136 13.0747C55.6335 13.0747 55.9632 12.8792 56.2005 12.4871C56.4041 12.1626 56.506 11.7778 56.506 11.3325Z" fill="white"/>
<path d="M65.8951 8.92505L64.3465 13.7504H63.3387L62.6972 11.655C62.5345 11.132 62.4022 10.612 62.2993 10.0961H62.2793C62.1838 10.6263 62.0515 11.1453 61.8814 11.655L61.2001 13.7504H60.1807L58.7245 8.92505H59.8552L60.4148 11.219C60.5502 11.7615 60.6615 12.2784 60.7507 12.7677H60.7707C60.8526 12.3644 60.988 11.8506 61.1791 11.2292L61.8814 8.92607H62.778L63.451 11.1801C63.6137 11.7298 63.746 12.259 63.8478 12.7688H63.8783C63.9528 12.2723 64.0652 11.7431 64.2142 11.1801L64.8148 8.92607H65.8951V8.92505Z" fill="white"/>
<path d="M71.599 13.7502H70.4988V10.9864C70.4988 10.1347 70.167 9.70892 69.5014 9.70892C69.1749 9.70892 68.9114 9.82561 68.7067 10.06C68.504 10.2944 68.4011 10.5708 68.4011 10.8871V13.7492H67.3009V10.3036C67.3009 9.87986 67.2872 9.42026 67.261 8.92278H68.2279L68.2794 9.67719H68.3098C68.4379 9.44278 68.629 9.24931 68.8799 9.09475C69.178 8.91459 69.5119 8.82349 69.8772 8.82349C70.3392 8.82349 70.7234 8.96884 71.029 9.26057C71.409 9.61782 71.599 10.1511 71.599 10.8595V13.7502Z" fill="white"/>
<path d="M74.633 13.7501H73.5338V6.71069H74.633V13.7501Z" fill="white"/>
<path d="M81.1108 11.2977C81.1108 12.0398 80.8935 12.6478 80.4588 13.1248C80.0032 13.6152 79.3985 13.8598 78.6457 13.8598C77.9181 13.8598 77.3397 13.6254 76.9092 13.1545C76.4788 12.6847 76.2635 12.092 76.2635 11.3775C76.2635 10.6303 76.4851 10.0171 76.9302 9.54115C77.3754 9.06516 77.9738 8.82666 78.7265 8.82666C79.4541 8.82666 80.0368 9.06107 80.4798 9.53091C80.8998 9.98745 81.1108 10.5771 81.1108 11.2977ZM79.9685 11.3325C79.9685 10.8872 79.8698 10.5054 79.6735 10.1871C79.4436 9.80217 79.1139 9.60973 78.6877 9.60973C78.2447 9.60973 77.9087 9.80217 77.6788 10.1871C77.4814 10.5054 77.3838 10.8934 77.3838 11.3519C77.3838 11.7972 77.4824 12.179 77.6788 12.4974C77.9171 12.8822 78.2489 13.0747 78.6772 13.0747C79.0971 13.0747 79.4258 12.8792 79.663 12.4871C79.8677 12.1626 79.9685 11.7778 79.9685 11.3325Z" fill="white"/>
<path d="M86.4357 13.7503H85.4477L85.3658 13.1945H85.3354C84.9973 13.6377 84.5155 13.8598 83.8897 13.8598C83.4225 13.8598 83.0446 13.7134 82.7601 13.4227C82.5018 13.1586 82.3727 12.83 82.3727 12.44C82.3727 11.8504 82.6246 11.4011 83.1317 11.0899C83.6378 10.7787 84.3496 10.6262 85.2661 10.6334V10.5433C85.2661 9.9076 84.9239 9.59028 84.2383 9.59028C83.7501 9.59028 83.3197 9.71005 82.948 9.94753L82.7244 9.24327C83.1842 8.96587 83.7522 8.82666 84.422 8.82666C85.7155 8.82666 86.3643 9.49201 86.3643 10.8227V12.5997C86.3643 13.0819 86.3884 13.4657 86.4357 13.7503ZM85.2934 12.092V11.3478C84.0798 11.3274 83.4729 11.6519 83.4729 12.3203C83.4729 12.5721 83.5422 12.7604 83.684 12.8863C83.8257 13.0122 84.0063 13.0747 84.2215 13.0747C84.463 13.0747 84.6887 13 84.8945 12.8515C85.1013 12.7021 85.2283 12.5127 85.2756 12.2804C85.2871 12.2282 85.2934 12.1647 85.2934 12.092Z" fill="white"/>
<path d="M92.6877 13.7501H91.7113L91.6598 12.9753H91.6294C91.3176 13.5649 90.7863 13.8597 90.0399 13.8597C89.4436 13.8597 88.947 13.6314 88.5533 13.1749C88.1596 12.7183 87.9633 12.1257 87.9633 11.3979C87.9633 10.6168 88.1764 9.98424 88.6047 9.50109C89.0194 9.05069 89.5276 8.8255 90.1323 8.8255C90.7968 8.8255 91.2619 9.04353 91.5265 9.48061H91.5475V6.71069H92.6488V12.4501C92.6488 12.92 92.6614 13.353 92.6877 13.7501ZM91.5475 11.7152V10.9106C91.5475 10.7714 91.537 10.6588 91.5171 10.5728C91.4551 10.3149 91.3218 10.0979 91.1192 9.92282C90.9144 9.74778 90.6677 9.65975 90.3832 9.65975C89.9727 9.65975 89.6514 9.81841 89.4152 10.1368C89.1811 10.4551 89.0625 10.8615 89.0625 11.3579C89.0625 11.8349 89.1748 12.2219 89.4005 12.5197C89.6388 12.8371 89.9601 12.9957 90.3622 12.9957C90.7234 12.9957 91.0121 12.8637 91.2315 12.5986C91.4436 12.3539 91.5475 12.0591 91.5475 11.7152Z" fill="white"/>
<path d="M102.098 11.2977C102.098 12.0398 101.88 12.6478 101.446 13.1248C100.99 13.6152 100.387 13.8598 99.6326 13.8598C98.9072 13.8598 98.3287 13.6254 97.8962 13.1545C97.4657 12.6847 97.2505 12.092 97.2505 11.3775C97.2505 10.6303 97.472 10.0171 97.9172 9.54115C98.3623 9.06516 98.9607 8.82666 99.7156 8.82666C100.441 8.82666 101.026 9.06107 101.467 9.53091C101.887 9.98745 102.098 10.5771 102.098 11.2977ZM100.958 11.3325C100.958 10.8872 100.859 10.5054 100.663 10.1871C100.431 9.80217 100.103 9.60973 99.6746 9.60973C99.2337 9.60973 98.8977 9.80217 98.6657 10.1871C98.4683 10.5054 98.3707 10.8934 98.3707 11.3519C98.3707 11.7972 98.4694 12.179 98.6657 12.4974C98.904 12.8822 99.2358 13.0747 99.6641 13.0747C100.084 13.0747 100.415 12.8792 100.652 12.4871C100.855 12.1626 100.958 11.7778 100.958 11.3325Z" fill="white"/>
<path d="M108.014 13.7502H106.914V10.9864C106.914 10.1347 106.583 9.70892 105.916 9.70892C105.589 9.70892 105.326 9.82561 105.122 10.06C104.919 10.2944 104.817 10.5708 104.817 10.8871V13.7492H103.715V10.3036C103.715 9.87986 103.703 9.42026 103.677 8.92278H104.642L104.694 9.67719H104.724C104.853 9.44278 105.044 9.24931 105.294 9.09475C105.594 8.91459 105.926 8.82349 106.293 8.82349C106.754 8.82349 107.138 8.96884 107.443 9.26057C107.825 9.61782 108.014 10.1511 108.014 10.8595V13.7502Z" fill="white"/>
<path d="M115.418 9.72842H114.207V12.0725C114.207 12.6683 114.422 12.9661 114.848 12.9661C115.046 12.9661 115.21 12.9498 115.339 12.916L115.367 13.7298C115.15 13.8096 114.864 13.8495 114.512 13.8495C114.078 13.8495 113.74 13.7205 113.495 13.4626C113.249 13.2046 113.128 12.7706 113.128 12.1616V9.72842H112.404V8.92488H113.128V8.04047L114.206 7.72314V8.92385H115.417V9.72842H115.418Z" fill="white"/>
<path d="M121.243 13.7501H120.142V11.0068C120.142 10.1419 119.81 9.70888 119.145 9.70888C118.635 9.70888 118.287 9.95967 118.096 10.4612C118.063 10.5667 118.044 10.6957 118.044 10.8472V13.7491H116.945V6.71069H118.044V9.6188H118.065C118.412 9.08959 118.908 8.8255 119.552 8.8255C120.007 8.8255 120.384 8.97085 120.684 9.26258C121.056 9.62597 121.243 10.1664 121.243 10.8809V13.7501Z" fill="white"/>
<path d="M127.251 11.1093C127.251 11.3017 127.237 11.4634 127.21 11.5955H123.911C123.925 12.0725 124.083 12.4359 124.388 12.6877C124.668 12.9129 125.028 13.0255 125.469 13.0255C125.957 13.0255 126.402 12.9497 126.803 12.7972L126.975 13.5424C126.506 13.741 125.954 13.8403 125.314 13.8403C124.548 13.8403 123.944 13.6202 123.507 13.1801C123.069 12.7399 122.851 12.1493 122.851 11.4082C122.851 10.6804 123.054 10.0744 123.462 9.59124C123.889 9.07534 124.465 8.81738 125.193 8.81738C125.904 8.81738 126.445 9.07534 126.81 9.59124C127.105 10.0007 127.251 10.5074 127.251 11.1093ZM126.201 10.8319C126.21 10.5135 126.137 10.2392 125.988 10.0079C125.797 9.70998 125.506 9.56053 125.113 9.56053C124.754 9.56053 124.461 9.70589 124.237 9.99762C124.054 10.23 123.946 10.5074 123.911 10.8319H126.201Z" fill="white"/>
</svg>
