<svg width="143" height="41" viewBox="0 0 143 41" fill="none" xmlns="http://www.w3.org/2000/svg">
<path d="M137.028 40.9448H5.97443C3.09257 40.9448 0.7323 38.6404 0.7323 35.8267V5.11806C0.7323 2.30438 3.09257 -5.43912e-05 5.97443 -5.43912e-05H137.028C139.909 -5.43912e-05 142.27 2.30438 142.27 5.11806V35.8267C142.27 38.6404 139.909 40.9448 137.028 40.9448Z" fill="black"/>
<path d="M137.028 0.820122C139.455 0.820122 141.43 2.74837 141.43 5.11806V35.8267C141.43 38.1964 139.455 40.1246 137.028 40.1246H5.97443C3.54732 40.1246 1.57235 38.1964 1.57235 35.8267V5.11806C1.57235 2.74837 3.54732 0.820122 5.97443 0.820122H137.028ZM137.028 -5.43912e-05H5.97443C3.09257 -5.43912e-05 0.7323 2.30438 0.7323 5.11806V35.8267C0.7323 38.6404 3.09257 40.9448 5.97443 40.9448H137.028C139.909 40.9448 142.27 38.6404 142.27 35.8267V5.11806C142.27 2.30438 139.909 -5.43912e-05 137.028 -5.43912e-05Z" fill="#A6A6A6"/>
<path d="M50.446 10.4857C50.446 11.3404 50.1839 12.0249 49.6675 12.5355C49.0739 13.1407 48.3006 13.4452 47.3531 13.4452C46.4475 13.4452 45.6743 13.1356 45.04 12.5252C44.4044 11.9059 44.0873 11.1459 44.0873 10.2362C44.0873 9.32641 44.4044 8.56637 45.04 7.9522C45.6743 7.33675 46.4475 7.0271 47.3531 7.0271C47.804 7.0271 48.2338 7.11795 48.644 7.28684C49.0529 7.45702 49.3858 7.68734 49.6269 7.97139L49.0791 8.51135C48.6584 8.02641 48.0857 7.78714 47.3531 7.78714C46.6926 7.78714 46.1199 8.01234 45.6337 8.46657C45.1527 8.92208 44.9116 9.51194 44.9116 10.2362C44.9116 10.9604 45.1527 11.5553 45.6337 12.0109C46.1199 12.46 46.6926 12.6903 47.3531 12.6903C48.0543 12.6903 48.644 12.46 49.1092 12.0057C49.4159 11.7051 49.5902 11.2905 49.6361 10.7608H47.3531V10.0212H50.3988C50.4355 10.1811 50.446 10.336 50.446 10.4857Z" fill="white" stroke="white" stroke-width="0.125984" stroke-miterlimit="10"/>
<path d="M55.278 7.92161H52.4171V9.86649H54.9962V10.6061H52.4171V12.5509H55.278V13.3046H51.6072V7.16797H55.278V7.92161Z" fill="white" stroke="white" stroke-width="0.125984" stroke-miterlimit="10"/>
<path d="M58.6879 13.3046H57.878V7.92161H56.1232V7.16797H60.444V7.92161H58.6879V13.3046Z" fill="white" stroke="white" stroke-width="0.125984" stroke-miterlimit="10"/>
<path d="M63.571 13.3046V7.16797H64.3796V13.3046H63.571Z" fill="white" stroke="white" stroke-width="0.125984" stroke-miterlimit="10"/>
<path d="M67.9639 13.3046H67.1605V7.92161H65.3992V7.16797H69.7252V7.92161H67.9639V13.3046Z" fill="white" stroke="white" stroke-width="0.125984" stroke-miterlimit="10"/>
<path d="M77.9057 12.515C77.2858 13.1356 76.5179 13.4452 75.6018 13.4452C74.6805 13.4452 73.9125 13.1356 73.2926 12.515C72.6741 11.8957 72.3661 11.1357 72.3661 10.2362C72.3661 9.33665 72.6741 8.57661 73.2926 7.95732C73.9125 7.33675 74.6805 7.0271 75.6018 7.0271C76.5126 7.0271 77.2806 7.33675 77.9005 7.96243C78.5243 8.58684 78.8323 9.34176 78.8323 10.2362C78.8323 11.1357 78.5243 11.8957 77.9057 12.515ZM73.8916 12.0006C74.3581 12.46 74.9256 12.6903 75.6018 12.6903C76.2728 12.6903 76.8455 12.46 77.3068 12.0006C77.772 11.5413 78.0079 10.9514 78.0079 10.2362C78.0079 9.5209 77.772 8.93104 77.3068 8.47169C76.8455 8.01234 76.2728 7.78202 75.6018 7.78202C74.9256 7.78202 74.3581 8.01234 73.8916 8.47169C73.4263 8.93104 73.1904 9.5209 73.1904 10.2362C73.1904 10.9514 73.4263 11.5413 73.8916 12.0006Z" fill="white" stroke="white" stroke-width="0.125984" stroke-miterlimit="10"/>
<path d="M79.9684 13.3046V7.16797H80.9513L84.0074 11.9406H84.0428L84.0074 10.7609V7.16797H84.816V13.3046H83.9721L80.7717 8.29651H80.7364L80.7717 9.48135V13.3046H79.9684Z" fill="white" stroke="white" stroke-width="0.125984" stroke-miterlimit="10"/>
<path d="M72.1667 22.2664C69.7042 22.2664 67.6926 24.0962 67.6926 26.6207C67.6926 29.1247 69.7042 30.9736 72.1667 30.9736C74.6345 30.9736 76.6461 29.1247 76.6461 26.6207C76.6461 24.0962 74.6345 22.2664 72.1667 22.2664ZM72.1667 29.259C70.8156 29.259 69.6531 28.1702 69.6531 26.6207C69.6531 25.0507 70.8156 23.981 72.1667 23.981C73.5179 23.981 74.6856 25.0507 74.6856 26.6207C74.6856 28.1702 73.5179 29.259 72.1667 29.259ZM62.4046 22.2664C59.9368 22.2664 57.9304 24.0962 57.9304 26.6207C57.9304 29.1247 59.9368 30.9736 62.4046 30.9736C64.871 30.9736 66.8787 29.1247 66.8787 26.6207C66.8787 24.0962 64.871 22.2664 62.4046 22.2664ZM62.4046 29.259C61.0521 29.259 59.8857 28.1702 59.8857 26.6207C59.8857 25.0507 61.0521 23.981 62.4046 23.981C63.7557 23.981 64.9182 25.0507 64.9182 26.6207C64.9182 28.1702 63.7557 29.259 62.4046 29.259ZM50.788 23.601V25.4512H55.3133C55.1809 26.485 54.8271 27.2451 54.2845 27.7748C53.624 28.4146 52.5952 29.1247 50.788 29.1247C48.0031 29.1247 45.8224 26.9303 45.8224 24.2113C45.8224 21.4923 48.0031 19.2979 50.788 19.2979C52.2938 19.2979 53.3894 19.8724 54.198 20.6171L55.5335 19.3133C54.4025 18.259 52.898 17.449 50.788 17.449C46.9691 17.449 43.7596 20.4828 43.7596 24.2113C43.7596 27.9399 46.9691 30.9736 50.788 30.9736C52.8521 30.9736 54.4025 30.3134 55.6213 29.0748C56.8702 27.8554 57.2594 26.1408 57.2594 24.7564C57.2594 24.3265 57.2227 23.9311 57.1572 23.601H50.788ZM98.2896 25.0353C97.9213 24.0616 96.7851 22.2664 94.4707 22.2664C92.1772 22.2664 90.2678 24.0309 90.2678 26.6207C90.2678 29.0594 92.1576 30.9736 94.6908 30.9736C96.7392 30.9736 97.9213 29.7542 98.4075 29.0441L96.8873 28.055C96.3801 28.7792 95.6895 29.259 94.6908 29.259C93.6988 29.259 92.9871 28.8151 92.5311 27.9399L98.4953 25.5305L98.2896 25.0353ZM92.2087 26.485C92.1576 24.8063 93.5441 23.9465 94.5375 23.9465C95.316 23.9465 95.9765 24.3265 96.1966 24.8703L92.2087 26.485ZM87.361 30.7088H89.3216V17.9135H87.361V30.7088ZM84.1502 23.2363H84.0847C83.6444 22.7271 82.8043 22.2664 81.7402 22.2664C79.507 22.2664 77.4652 24.1806 77.4652 26.6347C77.4652 29.0748 79.507 30.9736 81.7402 30.9736C82.8043 30.9736 83.6444 30.5091 84.0847 29.9845H84.1502V30.6089C84.1502 32.2736 83.2394 33.168 81.7703 33.168C80.5725 33.168 79.8294 32.3235 79.5227 31.6134L77.8177 32.3082C78.3092 33.4623 79.6105 34.8826 81.7703 34.8826C84.069 34.8826 86.0086 33.5621 86.0086 30.3492V22.5313H84.1502V23.2363ZM81.9079 29.259C80.5568 29.259 79.4258 28.1548 79.4258 26.6347C79.4258 25.1006 80.5568 23.981 81.9079 23.981C83.2394 23.981 84.2891 25.1006 84.2891 26.6347C84.2891 28.1548 83.2394 29.259 81.9079 29.259ZM107.469 17.9135H102.779V30.7088H104.735V25.8606H107.469C109.64 25.8606 111.77 24.3265 111.77 21.8864C111.77 19.4476 109.635 17.9135 107.469 17.9135ZM107.52 24.0808H104.735V19.6933H107.52C108.98 19.6933 109.813 20.8769 109.813 21.8864C109.813 22.8768 108.98 24.0808 107.52 24.0808ZM119.607 22.2421C118.194 22.2421 116.725 22.8512 116.121 24.2011L117.856 24.9112C118.229 24.2011 118.916 23.9708 119.642 23.9708C120.656 23.9708 121.685 24.5657 121.701 25.6162V25.7506C121.347 25.551 120.59 25.2554 119.658 25.2554C117.789 25.2554 115.885 26.2598 115.885 28.1343C115.885 29.8489 117.415 30.9531 119.136 30.9531C120.452 30.9531 121.178 30.3735 121.634 29.6992H121.701V30.6883H123.589V25.78C123.589 23.5114 121.854 22.2421 119.607 22.2421ZM119.371 29.2539C118.731 29.2539 117.84 28.9443 117.84 28.1702C117.84 27.1798 118.951 26.7998 119.913 26.7998C120.774 26.7998 121.178 26.9853 121.701 27.2297C121.548 28.4146 120.503 29.2539 119.371 29.2539ZM130.47 22.5223L128.222 28.0691H128.155L125.832 22.5223H123.723L127.214 30.2737L125.222 34.587H127.265L132.645 22.5223H130.47ZM112.844 30.7088H114.805V17.9135H112.844V30.7088Z" fill="white"/>
<path d="M11.6725 7.71681C11.3645 8.03158 11.1863 8.52164 11.1863 9.15628V31.7937C11.1863 32.4283 11.3645 32.9184 11.6725 33.2332L11.7485 33.3022L24.7411 20.6221V20.3227L11.7485 7.6426L11.6725 7.71681Z" fill="url(#paint0_linear_1518_2341)"/>
<path d="M29.0674 24.8511L24.7413 20.6222V20.3228L29.0726 16.094L29.1696 16.149L34.299 18.9985C35.7629 19.8072 35.7629 21.1379 34.299 21.9517L29.1696 24.7961L29.0674 24.8511Z" fill="url(#paint1_linear_1518_2341)"/>
<path d="M29.1696 24.796L24.7414 20.4725L11.6727 33.2332C12.1589 33.7322 12.9518 33.7924 13.8535 33.2934L29.1696 24.796Z" fill="url(#paint2_linear_1518_2341)"/>
<path d="M29.1696 16.1489L13.8535 7.65155C12.9518 7.15765 12.1589 7.21779 11.6727 7.7168L24.7414 20.4724L29.1696 16.1489Z" fill="url(#paint3_linear_1518_2341)"/>
<defs>
<linearGradient id="paint0_linear_1518_2341" x1="23.5875" y1="32.0294" x2="6.41361" y2="14.4394" gradientUnits="userSpaceOnUse">
<stop stop-color="#00A0FF"/>
<stop offset="0.0066" stop-color="#00A1FF"/>
<stop offset="0.2601" stop-color="#00BEFF"/>
<stop offset="0.5122" stop-color="#00D2FF"/>
<stop offset="0.7604" stop-color="#00DFFF"/>
<stop offset="1" stop-color="#00E3FF"/>
</linearGradient>
<linearGradient id="paint1_linear_1518_2341" x1="36.2052" y1="20.4711" x2="10.8366" y2="20.4711" gradientUnits="userSpaceOnUse">
<stop stop-color="#FFE000"/>
<stop offset="0.4087" stop-color="#FFBD00"/>
<stop offset="0.7754" stop-color="#FFA500"/>
<stop offset="1" stop-color="#FF9C00"/>
</linearGradient>
<linearGradient id="paint2_linear_1518_2341" x1="26.7617" y1="18.1222" x2="3.47245" y2="-5.73138" gradientUnits="userSpaceOnUse">
<stop stop-color="#FF3A44"/>
<stop offset="1" stop-color="#C31162"/>
</linearGradient>
<linearGradient id="paint3_linear_1518_2341" x1="8.38309" y1="40.7645" x2="18.7828" y2="30.1129" gradientUnits="userSpaceOnUse">
<stop stop-color="#32A071"/>
<stop offset="0.0685" stop-color="#2DA771"/>
<stop offset="0.4762" stop-color="#15CF74"/>
<stop offset="0.8009" stop-color="#06E775"/>
<stop offset="1" stop-color="#00F076"/>
</linearGradient>
</defs>
</svg>
