<svg width="42" height="48" viewBox="0 0 42 48" fill="none" xmlns="http://www.w3.org/2000/svg">
<g clip-path="url(#clip0_5638_33504)">
<path d="M15.2 34.8C6.57 34.8 1.63 33.2901 1.4 32.5V25.21C4.25 26.74 10.87 27.2 15.2 27.2C17.88 27.2 20.5 27.05 22.79 26.76L22.62 25.37C20.39 25.65 17.83 25.8 15.21 25.8C6.58 25.8 1.64 24.2901 1.41 23.5V16.21C4.26 17.74 10.88 18.2 15.21 18.2C19.54 18.2 26.16 17.74 29.01 16.21V17.5H30.41V15.5H29.99C30.26 15.2 30.41 14.87 30.41 14.5V4.50005C30.41 1.58005 20.86 0.800049 15.21 0.800049C9.56 0.800049 0 1.58005 0 4.50005V14.5C0 14.87 0.15 15.2 0.42 15.5H0V23.5C0 23.8701 0.15 24.2001 0.42 24.5H0V32.5C0 35.4201 9.55 36.2001 15.2 36.2001C16.4 36.2001 17.59 36.1701 18.74 36.1101L18.67 34.71C17.55 34.7701 16.38 34.8 15.21 34.8H15.2ZM15.2 16.8C6.57 16.8 1.63 15.29 1.4 14.5V7.21005C4.25 8.74005 10.87 9.20005 15.2 9.20005C19.53 9.20005 26.15 8.74005 29 7.21005V14.49C28.77 15.3 23.83 16.8 15.2 16.8ZM1.4 4.51005C1.64 3.70005 6.58 2.20005 15.2 2.20005C23.82 2.20005 28.77 3.71005 29 4.50005V5.49005C28.77 6.30005 23.83 7.80005 15.2 7.80005C6.57 7.80005 1.63 6.29005 1.4 5.50005V4.51005Z" fill="white"/>
<path d="M5.7002 11.8H3.7002V13.2H5.7002V11.8Z" fill="white"/>
<path d="M5.7002 20.8H3.7002V22.2H5.7002V20.8Z" fill="white"/>
<path d="M5.7002 29.8H3.7002V31.2H5.7002V29.8Z" fill="white"/>
<path d="M39.7 30.8H37.4V24.5C37.4 21.36 34.39 18.8 30.7 18.8C27.01 18.8 24 21.36 24 24.5V30.8H21.7C20.76 30.8 20 31.5601 20 32.5V45.5C20 46.4401 20.76 47.2001 21.7 47.2001H39.7C40.64 47.2001 41.4 46.4401 41.4 45.5V32.5C41.4 31.5601 40.64 30.8 39.7 30.8ZM25.4 24.5C25.4 22.13 27.78 20.2 30.7 20.2C33.62 20.2 36 22.13 36 24.5V30.8H25.4V24.5ZM40 45.5C40 45.67 39.87 45.8 39.7 45.8H21.7C21.53 45.8 21.4 45.67 21.4 45.5V32.5C21.4 32.33 21.53 32.2 21.7 32.2H39.7C39.87 32.2 40 32.33 40 32.5V45.5Z" fill="white"/>
<path d="M29.6298 40.56L28.0698 39.02L27.0898 40.02L29.1998 42.1C29.3298 42.23 29.5098 42.3 29.6898 42.3C29.6998 42.3 29.7198 42.3 29.7298 42.3C29.9298 42.29 30.1098 42.19 30.2398 42.04L34.3698 36.83L33.2698 35.96L29.6198 40.55L29.6298 40.56Z" fill="white"/>
</g>
<defs>
<clipPath id="clip0_5638_33504">
<rect width="41.4" height="46.4" fill="white" transform="translate(0 0.800049)"/>
</clipPath>
</defs>
</svg>
