<svg width="40" height="48" viewBox="0 0 40 48" fill="none" xmlns="http://www.w3.org/2000/svg">
<g clip-path="url(#clip0_5634_33432)">
<g clip-path="url(#clip1_5634_33432)">
<path d="M3.27831 41.8238C1.65566 41.8238 0.23584 40.3228 0.23584 38.6089V21.2466C0.23584 19.6036 1.5441 18.3664 3.27831 18.3664H4.05921V13.0725C4.04907 5.87196 9.93117 0 17.1621 0C24.393 0 30.2751 5.87196 30.2751 13.0826V18.3765H31.0459C32.7801 18.3765 34.0985 19.6138 34.0985 21.2567V27.514C34.0985 27.8487 33.8247 28.1327 33.4799 28.1327C33.1351 28.1327 32.8612 27.8589 32.8612 27.514V21.2567C32.8612 20.1918 31.9282 19.6138 31.0358 19.6138H3.27831C2.37571 19.6138 1.46297 20.1817 1.46297 21.2567V38.6191C1.46297 39.6535 2.325 40.6068 3.27831 40.6068H21.8475C22.1822 40.6068 22.4661 40.8806 22.4661 41.2254C22.4661 41.5703 22.1923 41.8441 21.8475 41.8441H3.27831V41.8238ZM17.1621 4.19861C21.9084 4.19861 25.7621 8.18424 25.7621 13.0826V18.3765H29.048V13.0826C29.048 6.55145 23.7135 1.22713 17.1621 1.22713C10.6107 1.22713 5.28634 6.55145 5.28634 13.0826V18.3765H8.5722V13.0826C8.5722 8.18424 12.426 4.19861 17.1722 4.19861H17.1621ZM17.1621 5.42573C13.0243 5.42573 9.78919 8.78259 9.78919 13.0725V18.3664H24.5249V13.0725C24.5249 8.78259 21.2897 5.42573 17.152 5.42573H17.1621Z" fill="white"/>
<path d="M15.4177 35.2217C15.083 35.2217 14.8092 34.958 14.8092 34.6132V30.5566L14.7281 30.4856C13.9776 29.7554 13.5415 28.7818 13.5415 27.8387C13.5415 25.8509 15.154 24.2283 17.1519 24.2283C19.1498 24.2283 20.7623 25.8509 20.7623 27.8387C20.7623 28.792 20.3363 29.7554 19.5859 30.4856L19.5047 30.5566V34.6132C19.5047 34.9479 19.2208 35.2217 18.876 35.2217H15.4076H15.4177ZM17.1519 25.4655C15.8436 25.4655 14.7788 26.5304 14.7788 27.8488C14.7788 28.7007 15.3061 29.4106 15.8031 29.796C15.9552 29.9177 16.0465 30.0901 16.0465 30.2828V33.9946H18.2878V30.2828C18.2878 30.0901 18.3689 29.9177 18.521 29.796C19.0179 29.4106 19.5352 28.6906 19.5352 27.8488C19.5352 26.5405 18.4703 25.4655 17.162 25.4655H17.1519Z" fill="white"/>
<path d="M31.3906 48C31.2993 48 31.2182 47.9797 31.1371 47.9391C30.8227 47.7972 23.5005 44.349 23.5005 38.8929V32.2299C23.5005 32.0473 23.5715 31.8749 23.7033 31.7634C23.8149 31.6721 23.9569 31.6112 24.0988 31.6112C24.2205 31.6112 24.5248 31.6619 25.0116 31.6619C25.7418 31.6619 26.8371 31.5707 27.9425 31.1447C29.839 30.4044 30.9038 29.0454 30.914 29.0353C31.0357 28.8832 31.2182 28.7817 31.4008 28.7817C31.5833 28.7817 31.7659 28.873 31.8876 29.0353C31.8876 29.0353 32.9423 30.4044 34.8185 31.1346C35.9239 31.5605 37.0293 31.6518 37.7494 31.6518C38.2565 31.6518 38.5708 31.6112 38.5708 31.6112H38.6114C38.8244 31.6112 38.9562 31.6619 39.0678 31.7532C39.2098 31.8749 39.2808 32.0473 39.2808 32.2197V38.8827C39.2808 44.349 31.9383 47.787 31.634 47.929C31.5529 47.9696 31.4616 47.9899 31.3703 47.9899L31.3906 48ZM31.2284 30.5058C30.6503 31.0433 29.6868 31.7938 28.3989 32.2907C27.1413 32.7775 25.8432 32.8891 24.971 32.8891H24.7175V38.8827C24.7175 42.8988 29.7375 45.8297 31.2791 46.6309L31.4008 46.6917L31.5225 46.6309C33.064 45.8297 38.084 42.8988 38.084 38.8827V32.8891H37.8305C36.5932 32.8891 35.4371 32.6862 34.4027 32.2907C33.1045 31.7836 32.1614 31.0433 31.5833 30.5058L31.4109 30.3435L31.2385 30.5058H31.2284Z" fill="white"/>
<path d="M30.7009 41.5804C30.5488 41.5804 30.3966 41.5195 30.2851 41.4181L27.7801 39.0957C27.5266 38.8624 27.5164 38.477 27.7497 38.2235C27.8714 38.1018 28.0235 38.0308 28.1959 38.0308C28.348 38.0308 28.5002 38.0917 28.6117 38.1931L30.6705 40.0997L34.575 35.8707C34.6967 35.7388 34.8488 35.678 35.0212 35.678C35.1733 35.678 35.3254 35.7388 35.437 35.8402C35.5587 35.9518 35.6297 36.1039 35.6297 36.2662C35.6297 36.4285 35.579 36.5907 35.4674 36.7124L31.137 41.3978C31.0254 41.5195 30.8733 41.5905 30.711 41.5905H30.6907L30.7009 41.5804Z" fill="white"/>
</g>
</g>
<defs>
<clipPath id="clip0_5634_33432">
<rect width="39.164" height="48" fill="white" transform="translate(0.399902)"/>
</clipPath>
<clipPath id="clip1_5634_33432">
<rect width="39.0653" height="48" fill="white" transform="translate(0.23584)"/>
</clipPath>
</defs>
</svg>
