<svg width="49" height="48" viewBox="0 0 49 48" fill="none" xmlns="http://www.w3.org/2000/svg">
<g clip-path="url(#clip0_5634_33392)">
<path d="M24.4006 48C17.9903 48 11.963 45.5035 7.42968 40.9702C2.89638 36.4376 0.399902 30.4103 0.399902 24C0.399902 17.5897 2.89638 11.5624 7.42968 7.02978C11.963 2.49648 17.9903 0 24.4006 0C30.8109 0 36.839 2.49648 41.3715 7.02978C45.9034 11.5624 48.3999 17.5897 48.3999 24C48.3999 30.4103 45.9041 36.4376 41.3715 40.9702C36.839 45.5035 30.8123 48 24.4006 48ZM24.4006 1.27879C18.3313 1.27879 12.6258 3.64241 8.33407 7.93346C4.04232 12.2252 1.67869 17.9307 1.67869 24C1.67869 30.0693 4.04232 35.7748 8.33407 40.0665C12.6258 44.3583 18.3321 46.7212 24.4006 46.7212C30.4692 46.7212 36.1761 44.3576 40.4672 40.0665C44.7582 35.7755 47.1211 30.0693 47.1211 24C47.1211 17.9307 44.7582 12.2252 40.4672 7.93346C36.1761 3.6417 30.4706 1.27879 24.4006 1.27879Z" fill="white"/>
<path d="M7.68492 13.4819C7.59683 13.5033 7.01214 13.8443 6.76135 14.2989C6.59653 14.5988 6.61216 14.8232 6.82103 14.9383C7.07821 15.0797 7.30342 14.8339 7.72257 14.402C8.32076 13.7825 8.8202 13.4578 9.52708 13.8464C10.3888 14.3203 10.3064 15.1813 9.90291 15.9145C9.59671 16.4715 9.08164 16.9901 8.54029 17.2778L7.98686 16.4715C8.09982 16.443 8.79889 16.0466 9.12 15.4626C9.29335 15.1465 9.27417 14.9412 9.0923 14.841C8.80883 14.6847 8.52395 15.0378 8.07495 15.474C7.47534 16.058 7.03345 16.2399 6.46013 15.9251C5.65733 15.484 5.57634 14.603 5.99408 13.8421C6.29104 13.3015 6.7848 12.9242 7.16488 12.7012L7.68421 13.4819H7.68492Z" fill="white"/>
<path d="M10.7554 9.70807C10.6645 9.70736 10.0145 9.89562 9.66137 10.2764C9.42834 10.5272 9.38927 10.7489 9.56404 10.9116C9.7793 11.1112 10.0578 10.9279 10.5686 10.6103C11.2996 10.1549 11.863 9.96098 12.4541 10.5094C13.1752 11.1787 12.8853 11.9935 12.3163 12.6074C11.8843 13.0734 11.2584 13.4507 10.6631 13.5984L10.3221 12.682C10.4386 12.682 11.213 12.4674 11.6662 11.9793C11.9113 11.7151 11.9426 11.5104 11.7905 11.3698C11.5533 11.1495 11.1916 11.4224 10.6496 11.7364C9.92565 12.1569 9.45321 12.2266 8.97366 11.7818C8.30159 11.1581 8.43799 10.2842 9.02837 9.64839C9.44823 9.19584 10.018 8.95003 10.4414 8.82642L10.7554 9.70949V9.70807Z" fill="white"/>
<path d="M14.1457 10.7902L11.7607 7.16629L12.5976 6.61499L14.4988 9.50363L16.2543 8.34775L16.7381 9.08234L14.1457 10.7888V10.7902Z" fill="white"/>
<path d="M20.9861 4.49203C20.9108 4.44088 20.2657 4.23698 19.7606 4.35705C19.4281 4.43662 19.2718 4.59931 19.3272 4.83091C19.3954 5.11651 19.7286 5.11793 20.3304 5.13782C21.1907 5.16482 21.7676 5.31614 21.9544 6.10046C22.1825 7.05742 21.4898 7.57462 20.6756 7.76857C20.0576 7.91634 19.3272 7.88295 18.7504 7.6755L18.9756 6.72352C19.0729 6.78817 19.8359 7.03966 20.4838 6.88479C20.8348 6.80095 20.974 6.64821 20.9257 6.44644C20.8504 6.13172 20.3986 6.15801 19.7734 6.11822C18.9379 6.06636 18.506 5.86175 18.3546 5.22591C18.1422 4.33431 18.7404 3.68284 19.5844 3.48179C20.1847 3.33828 20.7957 3.45053 21.2163 3.58267L20.9868 4.49132L20.9861 4.49203Z" fill="white"/>
<path d="M26.2678 6.43226L26.2536 7.31178L23.2051 7.26276L23.2754 2.92554L26.2685 2.97385L26.2543 3.85337L24.2629 3.8214L24.2494 4.66469L25.9602 4.6924L25.9474 5.50514L24.2366 5.47743L24.2217 6.39958L26.2678 6.43297V6.43226Z" fill="white"/>
<path d="M30.1282 3.688C30.872 3.8855 31.3522 4.41194 31.473 5.02575L30.5907 5.34758C30.5374 4.85951 30.1822 4.62578 29.8752 4.54408C29.1904 4.36221 28.6931 4.92487 28.5311 5.53372C28.3535 6.20082 28.595 6.90983 29.2153 7.07466C29.5342 7.1592 29.9605 7.10236 30.2255 6.7237L30.899 7.40217C30.4862 7.95631 29.6245 8.10621 28.963 7.93073C27.8001 7.62169 27.2694 6.31094 27.555 5.23604C27.8249 4.22012 28.8529 3.34912 30.1282 3.68871V3.688Z" fill="white"/>
<path d="M34.9043 8.28362L36.0403 6.37894L36.9006 6.89187L35.7646 8.79656C35.1515 9.82527 34.1562 10.3489 33.0067 9.66329C31.8153 8.95285 31.8764 7.80123 32.4582 6.82509L33.5942 4.92041L34.4546 5.43335L33.3186 7.33803C32.9804 7.90496 32.8809 8.54933 33.4635 8.89673C34.0567 9.25053 34.5753 8.83421 34.9036 8.28291L34.9043 8.28362Z" fill="white"/>
<path d="M35.5198 11.3399L38.6798 8.36816L40.019 9.79259C40.5795 10.3894 40.4466 11.3357 39.9216 11.8294C39.5344 12.1939 38.9902 12.3281 38.5192 12.1754L38.0262 14.0062L37.2518 13.1828L37.6724 11.5879L37.2248 11.1119L36.2053 12.0703L35.519 11.3399H35.5198ZM37.8621 10.513L38.4901 11.1808C38.6535 11.3541 38.9696 11.325 39.2233 11.0863C39.4812 10.8433 39.4875 10.5108 39.3327 10.346L38.726 9.70023L37.8621 10.5123V10.513Z" fill="white"/>
<path d="M40.7053 16.9916L39.9337 17.4143L38.4702 14.7402L42.2753 12.6572L43.7125 15.2837L42.941 15.7064L41.9848 13.9595L41.2452 14.3644L42.0664 15.8649L41.3539 16.2549L40.5326 14.7544L39.7234 15.1978L40.706 16.993L40.7053 16.9916Z" fill="white"/>
<path d="M12.9746 36.3026L13.7006 36.8823L13.1742 38.2371L14.3883 37.4314L15.1094 38.0069L13.2836 39.1294L12.8993 40.3158L15.7438 38.5056L16.5935 39.1841L12.5362 41.4959L11.8769 40.9701L12.4019 39.2161L10.8027 40.1126L10.1484 39.5905L11.5032 35.1211L12.3487 35.796L11.2184 38.9745L12.2805 38.3294L12.9746 36.304V36.3026Z" fill="white"/>
<path d="M18.8001 43.5158L18.4861 44.3378L15.6372 43.2508L17.1845 39.1978L19.9815 40.2655L19.6675 41.0875L17.8062 40.3771L17.5057 41.165L19.1041 41.7752L18.8143 42.5347L17.2158 41.9244L16.8869 42.7862L18.7994 43.5158H18.8001Z" fill="white"/>
<path d="M22.4436 45.0439L20.3442 44.7981L20.8486 40.4893L23.2457 40.7699C23.8524 40.8409 24.1635 41.4434 24.0996 41.989C24.052 42.3954 23.792 42.7776 23.3643 42.9119C23.8389 43.115 24.1046 43.5278 24.0364 44.1104C23.9497 44.8506 23.2457 45.1377 22.445 45.0439H22.4436ZM22.6951 43.2649L21.5484 43.1307L21.4383 44.0713L22.543 44.2006C22.7981 44.2304 23.0141 44.0649 23.046 43.7921C23.0773 43.525 22.9324 43.2926 22.6958 43.2649H22.6951ZM21.7438 41.4562L21.6394 42.3485L22.6162 42.4629C22.8343 42.4884 23.0517 42.3662 23.0872 42.0629C23.1206 41.778 22.9693 41.5997 22.7569 41.5748L21.7438 41.4562Z" fill="white"/>
<path d="M27.9729 41.7681C27.9033 41.7091 27.2831 41.4392 26.768 41.5067C26.4284 41.5507 26.2565 41.6963 26.2877 41.9329C26.3254 42.2235 26.6572 42.2604 27.2532 42.3428C28.1065 42.4594 28.6641 42.6704 28.7686 43.4696C28.8957 44.445 28.1526 44.8869 27.3228 44.9956C26.6927 45.078 25.9702 44.9686 25.4174 44.7022L25.7407 43.7786C25.8302 43.8532 26.5634 44.1829 27.2241 44.0962C27.5814 44.0493 27.7363 43.9122 27.7093 43.7062C27.6674 43.3851 27.2149 43.3637 26.5975 43.26C25.772 43.1215 25.3635 42.8728 25.2789 42.2242C25.1603 41.3156 25.8231 40.7294 26.6834 40.6172C27.2951 40.5376 27.8912 40.7124 28.2961 40.8872L27.9736 41.7674L27.9729 41.7681Z" fill="white"/>
<path d="M30.5674 44.2502L29.2183 40.1276L30.1702 39.8157L31.5194 43.9383L30.5674 44.2502Z" fill="white"/>
<path d="M34.5692 38.6202L33.4133 39.2575L35.0835 42.2853L34.2061 42.7691L32.5359 39.7413L31.375 40.3814L30.9502 39.6112L34.1443 37.8494L34.5692 38.6195V38.6202Z" fill="white"/>
<path d="M39.2927 37.8855L39.8859 38.5355L37.6331 40.5908L34.709 37.3861L36.9206 35.3684L37.5138 36.0185L36.0425 37.3612L36.6108 37.9842L37.8747 36.8312L38.4224 37.4315L37.1586 38.5846L37.7802 39.2659L39.2927 37.8862V37.8855Z" fill="white"/>
<path d="M41.1093 34.1919L40.0181 33.5248C41.7665 30.6645 42.69 27.3702 42.69 23.9999C42.69 22.2423 42.4414 20.5046 41.9512 18.835L43.1781 18.4749C43.7031 20.2616 43.9688 22.1201 43.9688 23.9999C43.9688 27.6061 42.9799 31.1306 41.1093 34.1919Z" fill="white"/>
<path d="M7.69101 34.1919C5.81972 31.1306 4.83008 27.6061 4.83008 23.9999C4.83008 22.1201 5.09649 20.2616 5.62151 18.4749L6.84843 18.835C6.35823 20.5046 6.10887 22.2423 6.10887 23.9999C6.10887 27.371 7.03314 30.6645 8.78153 33.5248L7.6903 34.1919H7.69101Z" fill="white"/>
<path d="M18.5842 30.4337C18.6112 30.4337 18.6389 30.4308 18.6673 30.4252C19.8936 30.1836 21.1844 30.0223 22.5129 29.9399V25.4656C22.5129 25.1899 22.5655 24.9271 22.66 24.6848H17.9931C17.878 24.6848 17.7651 24.7331 17.6841 24.8162C17.6038 24.8994 17.5605 25.0137 17.5647 25.1288C17.6308 26.9177 17.8333 28.5894 18.1672 30.0969C18.2105 30.2916 18.386 30.433 18.5849 30.433L18.5842 30.4337Z" fill="white"/>
<path d="M34.1123 23.3115V20.4165C34.1123 18.2631 32.3603 16.5105 30.207 16.5105H29.1094C26.956 16.5105 25.2041 18.2631 25.2041 20.4165V23.3115H27.1564V20.4165C27.1564 19.3402 28.0324 18.4628 29.1094 18.4628H30.207C31.284 18.4628 32.1593 19.3395 32.1593 20.4165V23.3115H34.1123Z" fill="white"/>
<path d="M34.6546 24.6904H24.6623C24.2339 24.6904 23.8872 25.0378 23.8872 25.4662V33.1752C23.8872 33.6036 24.2339 33.9503 24.6623 33.9503H34.6546C35.083 33.9503 35.4297 33.6036 35.4297 33.1752V25.4662C35.4297 25.0378 35.083 24.6904 34.6546 24.6904ZM30.4644 29.277V31.5689C30.4644 32.0143 30.1035 32.3752 29.6581 32.3752C29.2126 32.3752 28.8517 32.0143 28.8517 31.5689V29.277C28.4475 29.0134 28.1797 28.5573 28.1797 28.0373C28.1797 27.221 28.8418 26.5589 29.6581 26.5589C30.4744 26.5589 31.1372 27.221 31.1372 28.0373C31.1372 28.5573 30.8694 29.0134 30.4644 29.277Z" fill="white"/>
<path d="M35.4871 23.3166H38.4589C38.5783 23.3166 38.6934 23.2662 38.7729 23.1781C38.8539 23.0907 38.8951 22.9728 38.8852 22.8541C38.6877 20.364 37.8557 17.9628 36.4782 15.911C36.3589 15.7327 36.1074 15.6709 35.9198 15.7718C35.3053 16.1014 34.6389 16.4027 33.9277 16.6733C34.8904 17.6303 35.4871 18.9545 35.4871 20.4159V23.3159V23.3166Z" fill="white"/>
<path d="M29.1093 19.8376C28.7903 19.8376 28.5303 20.0977 28.5303 20.4167V23.3167H30.7845V20.4167C30.7845 20.097 30.5252 19.8376 30.2062 19.8376H29.1086H29.1093Z" fill="white"/>
<path d="M25.2596 16.8088C26.2237 15.7808 27.592 15.1365 29.1095 15.1365H29.8228C28.7941 12.37 27.3057 10.4192 25.6767 9.73359C25.5459 9.67818 25.3918 9.69239 25.2731 9.77125C25.1531 9.85082 25.082 9.98438 25.082 10.1286V16.4621C25.082 16.578 25.1296 16.6902 25.2128 16.7705C25.2277 16.7847 25.2433 16.7968 25.2589 16.8088H25.2596Z" fill="white"/>
<path d="M29.2721 36.8519C29.1627 37.0061 29.1676 37.2178 29.2849 37.3656C29.3666 37.4693 29.4895 37.529 29.6216 37.529C29.6763 37.529 29.7303 37.5183 29.7808 37.4984C31.1277 36.9564 32.3696 36.2282 33.4914 35.3252H30.202C29.9143 35.8737 29.6039 36.3845 29.2714 36.8526L29.2721 36.8519Z" fill="white"/>
<path d="M38.4589 24.6855H36.6572C36.7517 24.9278 36.8043 25.1907 36.8043 25.4663V31.559C37.9879 29.6202 38.7054 27.42 38.8859 25.148C38.8951 25.0294 38.8546 24.9115 38.7736 24.8234C38.6933 24.736 38.5783 24.6855 38.4589 24.6855Z" fill="white"/>
<path d="M25.082 37.8686C25.082 38.0128 25.1538 38.1463 25.2738 38.2259C25.3442 38.2721 25.4259 38.297 25.5104 38.297C25.568 38.297 25.6241 38.2856 25.6774 38.2636C26.7693 37.8011 27.7987 36.7759 28.6662 35.3252H25.082V37.8686Z" fill="white"/>
<path d="M22.513 33.1753V31.3147C21.3365 31.3879 20.1899 31.5257 19.0965 31.7296C18.975 31.7523 18.8692 31.8269 18.8067 31.9328C18.7434 32.0393 18.7299 32.1679 18.769 32.2859C19.7842 35.3464 21.3706 37.5246 23.1204 38.2635C23.173 38.2855 23.2291 38.2969 23.2867 38.2969C23.3712 38.2969 23.4529 38.272 23.5232 38.2258C23.6433 38.1463 23.7151 38.0127 23.7151 37.8685V35.1042C23.0039 34.7532 22.513 34.0208 22.513 33.1753Z" fill="white"/>
<path d="M31.4125 15.6154C31.4693 15.793 31.6334 15.9131 31.8203 15.9131C31.8622 15.9131 31.9034 15.9067 31.9432 15.8953C33.0358 15.5685 34.0241 15.1884 34.8816 14.7664C35.003 14.7068 35.0897 14.5917 35.1139 14.4595C35.138 14.3267 35.0982 14.1881 35.0066 14.0908C33.5374 12.5122 31.7791 11.3045 29.7813 10.501C29.6073 10.4299 29.4005 10.4853 29.2854 10.6324C29.1668 10.783 29.1618 10.989 29.2727 11.1453C30.128 12.3517 30.8484 13.8557 31.4139 15.6154H31.4125Z" fill="white"/>
<path d="M23.301 18.2653C21.6641 18.2092 20.0933 18.0323 18.6312 17.7396C18.3975 17.6927 18.1759 17.8476 18.1283 18.0707C17.8135 19.5626 17.6238 21.1774 17.5642 22.8725C17.5606 22.9883 17.604 23.102 17.6842 23.1858C17.7645 23.2689 17.8775 23.3165 17.9926 23.3165H23.286C23.5219 23.3165 23.7144 23.124 23.7144 22.8881V18.693C23.7144 18.4614 23.5326 18.2724 23.301 18.2653Z" fill="white"/>
<path d="M10.3408 23.3166H15.7657C15.9981 23.3166 16.1863 23.1348 16.1941 22.9025C16.256 21.066 16.4648 19.3247 16.8158 17.7262C16.8641 17.5074 16.7327 17.2857 16.5167 17.2225C15.1832 16.8375 13.9591 16.3494 12.8778 15.7711C12.6888 15.6702 12.4388 15.7341 12.3201 15.9103C10.9433 17.9599 10.1114 20.3612 9.91387 22.8534C9.90464 22.9728 9.94584 23.0907 10.0261 23.1774C10.1064 23.2648 10.2215 23.3159 10.3408 23.3159V23.3166Z" fill="white"/>
<path d="M23.523 9.77195C23.4044 9.69309 23.2509 9.67817 23.1202 9.73359C21.3519 10.4774 19.7456 12.7139 18.7141 15.8696C18.6757 15.9861 18.6899 16.114 18.7524 16.2199C18.815 16.3257 18.9201 16.4003 19.0402 16.4231C20.4106 16.6895 21.835 16.8472 23.2708 16.8927H23.2865C23.398 16.8927 23.5038 16.85 23.5841 16.7719C23.6672 16.6916 23.7141 16.5794 23.7141 16.4643V10.1279C23.7141 9.98366 23.6424 9.8501 23.523 9.77124V9.77195Z" fill="white"/>
<path d="M16.8549 30.433C16.4776 28.7841 16.2553 26.9902 16.1942 25.1004C16.1871 24.8674 15.9988 24.6855 15.7658 24.6855H10.3409C10.2222 24.6855 10.1071 24.736 10.0261 24.8234C9.94515 24.9108 9.90466 25.0294 9.91389 25.148C10.1135 27.6864 10.9781 30.1303 12.4132 32.2148C12.4928 32.3313 12.6249 32.4002 12.7663 32.4002C12.8359 32.4002 12.9055 32.3831 12.9666 32.3505C14.0145 31.7956 15.2216 31.3217 16.5544 30.9409C16.7732 30.8791 16.9053 30.6561 16.8549 30.433Z" fill="white"/>
<path d="M13.9032 14.763C14.7231 15.1829 15.6879 15.5559 16.8544 15.904C16.8942 15.916 16.9361 15.9224 16.9773 15.9224C17.1641 15.9224 17.3283 15.8024 17.3851 15.6241C17.9492 13.8593 18.6689 12.3525 19.5249 11.1447C19.6358 10.9884 19.6301 10.7824 19.5114 10.6311C19.3956 10.4855 19.1896 10.4293 19.0156 10.4997C17.0491 11.2904 15.241 12.5315 13.786 14.0881C13.6944 14.1854 13.6539 14.3218 13.6766 14.454C13.6993 14.5854 13.7846 14.7005 13.9032 14.7616V14.763Z" fill="white"/>
<path d="M17.4322 32.5282C17.3618 32.3115 17.1224 32.1843 16.9036 32.2504C15.8308 32.568 14.8604 32.936 14.0185 33.3445C13.8956 33.4035 13.8082 33.52 13.7841 33.6535C13.7599 33.7878 13.8018 33.927 13.8956 34.0251C15.3385 35.539 17.0613 36.707 19.015 37.497C19.0662 37.5176 19.1202 37.5282 19.1756 37.5282C19.3077 37.5282 19.4306 37.4686 19.5116 37.3656C19.6288 37.2178 19.6345 37.0068 19.5258 36.8526C18.6854 35.6655 17.9813 34.2105 17.4329 32.5282H17.4322Z" fill="white"/>
</g>
<defs>
<clipPath id="clip0_5634_33392">
<rect width="48" height="48" fill="white" transform="translate(0.399902)"/>
</clipPath>
</defs>
</svg>
